<svg width="480" height="23" viewBox="0 0 480 23" fill="none" xmlns="http://www.w3.org/2000/svg">
<path d="M236.596 15.1494C235.868 15.1494 235.21 14.9861 234.622 14.6594C234.034 14.3234 233.572 13.8568 233.236 13.2594C232.9 12.6528 232.732 11.9528 232.732 11.1594C232.732 10.3754 232.904 9.6801 233.25 9.07344C233.595 8.46677 234.066 8.0001 234.664 7.67344C235.261 7.34677 235.928 7.18344 236.666 7.18344C237.403 7.18344 238.07 7.34677 238.668 7.67344C239.265 8.0001 239.736 8.46677 240.082 9.07344C240.427 9.6801 240.6 10.3754 240.6 11.1594C240.6 11.9434 240.422 12.6388 240.068 13.2454C239.713 13.8521 239.228 14.3234 238.612 14.6594C238.005 14.9861 237.333 15.1494 236.596 15.1494ZM236.596 13.7634C237.006 13.7634 237.389 13.6654 237.744 13.4694C238.108 13.2734 238.402 12.9794 238.626 12.5874C238.85 12.1954 238.962 11.7194 238.962 11.1594C238.962 10.5994 238.854 10.1281 238.64 9.74544C238.425 9.35344 238.14 9.05944 237.786 8.86344C237.431 8.66744 237.048 8.56944 236.638 8.56944C236.227 8.56944 235.844 8.66744 235.49 8.86344C235.144 9.05944 234.869 9.35344 234.664 9.74544C234.458 10.1281 234.356 10.5994 234.356 11.1594C234.356 11.9901 234.566 12.6341 234.986 13.0914C235.415 13.5394 235.952 13.7634 236.596 13.7634ZM243.873 8.42944C244.107 8.03744 244.415 7.7341 244.797 7.51944C245.189 7.29544 245.651 7.18344 246.183 7.18344V8.83544H245.777C245.152 8.83544 244.676 8.9941 244.349 9.31144C244.032 9.62877 243.873 10.1794 243.873 10.9634V15.0234H242.277V7.30944H243.873V8.42944Z" fill="#969AB8"/>
<line y1="11.3154" x2="202.8" y2="11.3154" stroke="#E4E6EC"/>
<line x1="277.2" y1="11.3154" x2="480" y2="11.3154" stroke="#E4E6EC"/>
</svg>
