<svg width="241" height="31" viewBox="0 0 241 31" fill="none" xmlns="http://www.w3.org/2000/svg">
<path d="M12 2.13769C13.92 2.13769 15.6267 2.49769 17.12 3.21769C18.6133 3.93769 19.8667 4.95103 20.88 6.2577C21.92 7.53769 22.6933 9.03103 23.2 10.7377C23.7333 12.4177 24 14.2177 24 16.1377C24 18.7244 23.5333 21.0844 22.6 23.2177C21.6667 25.3244 20.3067 27.0044 18.52 28.2577C16.76 29.511 14.5867 30.1377 12 30.1377H2.44C1.74667 30.1377 1.16 29.911 0.68 29.4577C0.226667 28.9777 1.19209e-07 28.391 1.19209e-07 27.6977V4.57769C1.19209e-07 3.88436 0.226667 3.31103 0.68 2.85769C1.16 2.37769 1.74667 2.13769 2.44 2.13769H12ZM11.6 25.5377C13.28 25.5377 14.6533 25.111 15.72 24.2577C16.7867 23.3777 17.56 22.231 18.04 20.8177C18.5467 19.3777 18.8 17.8177 18.8 16.1377C18.8 14.8844 18.6533 13.6977 18.36 12.5777C18.0933 11.431 17.6667 10.431 17.08 9.5777C16.4933 8.69769 15.7467 8.00436 14.84 7.49769C13.9333 6.99103 12.8533 6.73769 11.6 6.73769H4.6L5 6.37769V25.9777L4.76 25.5377H11.6ZM46.9278 2.13769C47.5145 2.13769 48.0878 2.35103 48.6478 2.77769C49.2345 3.20436 49.5278 3.77769 49.5278 4.49769C49.5278 5.00436 49.3411 5.51103 48.9678 6.01769L33.6478 25.6977L33.1678 25.5377H46.5278C47.2211 25.5377 47.7945 25.751 48.2478 26.1777C48.7278 26.5777 48.9678 27.1244 48.9678 27.8177C48.9678 28.4844 48.7278 29.0444 48.2478 29.4977C47.7945 29.9244 47.2211 30.1377 46.5278 30.1377H28.9678C28.2745 30.1377 27.6745 29.8977 27.1678 29.4177C26.6611 28.911 26.4078 28.3644 26.4078 27.7777C26.4078 27.271 26.5945 26.7644 26.9678 26.2577L42.3278 6.49769L42.6878 6.73769H30.5678C29.8745 6.73769 29.2878 6.52436 28.8078 6.09769C28.3545 5.67103 28.1278 5.11103 28.1278 4.4177C28.1278 3.72436 28.3545 3.17769 28.8078 2.77769C29.2878 2.35103 29.8745 2.13769 30.5678 2.13769H46.9278Z" fill="#ED9620"/>
<path d="M55.3853 20.2577C54.692 20.2577 54.1053 20.031 53.6253 19.5777C53.172 19.1244 52.9453 18.551 52.9453 17.8577C52.9453 17.1644 53.172 16.6044 53.6253 16.1777C54.1053 15.7244 54.692 15.4977 55.3853 15.4977H62.3453C63.0386 15.4977 63.612 15.7377 64.0653 16.2177C64.5453 16.671 64.7853 17.2444 64.7853 17.9377C64.7853 18.6044 64.5453 19.1644 64.0653 19.6177C63.612 20.0444 63.0386 20.2577 62.3453 20.2577H55.3853ZM72.3247 2.09769C72.698 2.09769 73.0847 2.20436 73.4847 2.41769C73.9114 2.60436 74.2314 2.85769 74.4447 3.17769L84.1647 18.1377L82.1647 18.0577L92.1247 3.17769C92.6314 2.45769 93.2847 2.09769 94.0847 2.09769C94.7247 2.09769 95.298 2.32436 95.8047 2.77769C96.3114 3.23103 96.5647 3.81769 96.5647 4.53769V27.6977C96.5647 28.391 96.338 28.9777 95.8847 29.4577C95.4314 29.911 94.8314 30.1377 94.0847 30.1377C93.338 30.1377 92.7247 29.911 92.2447 29.4577C91.7914 28.9777 91.5647 28.391 91.5647 27.6977V8.8577L93.1247 9.2177L84.9647 21.6577C84.7247 21.951 84.418 22.2044 84.0447 22.4177C83.698 22.631 83.338 22.7244 82.9647 22.6977C82.618 22.7244 82.258 22.631 81.8847 22.4177C81.538 22.2044 81.2447 21.951 81.0047 21.6577L73.3647 9.5777L74.4047 7.45769V27.6977C74.4047 28.391 74.1914 28.9777 73.7647 29.4577C73.338 29.911 72.778 30.1377 72.0847 30.1377C71.418 30.1377 70.8714 29.911 70.4447 29.4577C70.018 28.9777 69.8047 28.391 69.8047 27.6977V4.53769C69.8047 3.87103 70.0447 3.29769 70.5247 2.81769C71.0314 2.33769 71.6314 2.09769 72.3247 2.09769ZM122.938 19.4577C122.938 21.6444 122.445 23.5777 121.458 25.2577C120.498 26.911 119.191 28.2044 117.538 29.1377C115.911 30.071 114.085 30.5377 112.058 30.5377C110.031 30.5377 108.191 30.071 106.538 29.1377C104.911 28.2044 103.605 26.911 102.618 25.2577C101.658 23.5777 101.178 21.6444 101.178 19.4577C101.178 17.271 101.658 15.351 102.618 13.6977C103.605 12.0177 104.911 10.711 106.538 9.7777C108.191 8.81769 110.031 8.33769 112.058 8.33769C114.085 8.33769 115.911 8.81769 117.538 9.7777C119.191 10.711 120.498 12.0177 121.458 13.6977C122.445 15.351 122.938 17.271 122.938 19.4577ZM118.138 19.4577C118.138 18.0977 117.858 16.9244 117.298 15.9377C116.765 14.9244 116.031 14.1377 115.098 13.5777C114.191 13.0177 113.178 12.7377 112.058 12.7377C110.938 12.7377 109.911 13.0177 108.978 13.5777C108.071 14.1377 107.338 14.9244 106.778 15.9377C106.245 16.9244 105.978 18.0977 105.978 19.4577C105.978 20.791 106.245 21.9644 106.778 22.9777C107.338 23.9644 108.071 24.7377 108.978 25.2977C109.911 25.8577 110.938 26.1377 112.058 26.1377C113.178 26.1377 114.191 25.8577 115.098 25.2977C116.031 24.7377 116.765 23.9644 117.298 22.9777C117.858 21.9644 118.138 20.791 118.138 19.4577ZM143.019 8.73769C143.712 8.73769 144.286 8.97769 144.739 9.45769C145.192 9.91103 145.419 10.4844 145.419 11.1777V21.3377C145.419 24.1644 144.632 26.4044 143.059 28.0577C141.486 29.711 139.219 30.5377 136.259 30.5377C133.299 30.5377 131.032 29.711 129.459 28.0577C127.912 26.4044 127.139 24.1644 127.139 21.3377V11.1777C127.139 10.4844 127.366 9.91103 127.819 9.45769C128.272 8.97769 128.846 8.73769 129.539 8.73769C130.232 8.73769 130.806 8.97769 131.259 9.45769C131.712 9.91103 131.939 10.4844 131.939 11.1777V21.3377C131.939 22.9644 132.299 24.1777 133.019 24.9777C133.739 25.751 134.819 26.1377 136.259 26.1377C137.726 26.1377 138.819 25.751 139.539 24.9777C140.259 24.1777 140.619 22.9644 140.619 21.3377V11.1777C140.619 10.4844 140.846 9.91103 141.299 9.45769C141.752 8.97769 142.326 8.73769 143.019 8.73769ZM161.856 8.33769C163.776 8.33769 165.229 8.75103 166.216 9.5777C167.229 10.4044 167.922 11.511 168.296 12.8977C168.669 14.2577 168.856 15.7777 168.856 17.4577V27.6977C168.856 28.391 168.629 28.9777 168.176 29.4577C167.722 29.911 167.149 30.1377 166.456 30.1377C165.762 30.1377 165.189 29.911 164.736 29.4577C164.282 28.9777 164.056 28.391 164.056 27.6977V17.4577C164.056 16.5777 163.949 15.791 163.736 15.0977C163.522 14.3777 163.136 13.8044 162.576 13.3777C162.016 12.951 161.216 12.7377 160.176 12.7377C159.162 12.7377 158.296 12.951 157.576 13.3777C156.856 13.8044 156.309 14.3777 155.936 15.0977C155.589 15.791 155.416 16.5777 155.416 17.4577V27.6977C155.416 28.391 155.189 28.9777 154.736 29.4577C154.282 29.911 153.709 30.1377 153.016 30.1377C152.322 30.1377 151.749 29.911 151.296 29.4577C150.842 28.9777 150.616 28.391 150.616 27.6977V2.97769C150.616 2.28436 150.842 1.71103 151.296 1.25769C151.749 0.777694 152.322 0.537695 153.016 0.537695C153.709 0.537695 154.282 0.777694 154.736 1.25769C155.189 1.71103 155.416 2.28436 155.416 2.97769V12.8977L154.816 12.7777C155.056 12.3244 155.389 11.8444 155.816 11.3377C156.242 10.8044 156.762 10.311 157.376 9.85769C157.989 9.40436 158.669 9.04436 159.416 8.77769C160.162 8.48436 160.976 8.33769 161.856 8.33769ZM191.573 8.33769C192.266 8.33769 192.84 8.56436 193.293 9.0177C193.746 9.47103 193.973 10.0577 193.973 10.7777V27.6977C193.973 28.391 193.746 28.9777 193.293 29.4577C192.84 29.911 192.266 30.1377 191.573 30.1377C190.88 30.1377 190.306 29.911 189.853 29.4577C189.4 28.9777 189.173 28.391 189.173 27.6977V25.7377L190.053 26.0977C190.053 26.4444 189.866 26.871 189.493 27.3777C189.12 27.8577 188.613 28.3377 187.973 28.8177C187.333 29.2977 186.573 29.711 185.693 30.0577C184.84 30.3777 183.906 30.5377 182.893 30.5377C181.053 30.5377 179.386 30.071 177.893 29.1377C176.4 28.1777 175.213 26.871 174.333 25.2177C173.48 23.5377 173.053 21.6177 173.053 19.4577C173.053 17.271 173.48 15.351 174.333 13.6977C175.213 12.0177 176.386 10.711 177.853 9.7777C179.32 8.81769 180.946 8.33769 182.733 8.33769C183.88 8.33769 184.933 8.51103 185.893 8.8577C186.853 9.20436 187.68 9.64436 188.373 10.1777C189.093 10.711 189.64 11.2577 190.013 11.8177C190.413 12.351 190.613 12.8044 190.613 13.1777L189.173 13.6977V10.7777C189.173 10.0844 189.4 9.51103 189.853 9.05769C190.306 8.57769 190.88 8.33769 191.573 8.33769ZM183.493 26.1377C184.666 26.1377 185.693 25.8444 186.573 25.2577C187.453 24.671 188.133 23.871 188.613 22.8577C189.12 21.8444 189.373 20.711 189.373 19.4577C189.373 18.1777 189.12 17.031 188.613 16.0177C188.133 15.0044 187.453 14.2044 186.573 13.6177C185.693 13.031 184.666 12.7377 183.493 12.7377C182.346 12.7377 181.333 13.031 180.453 13.6177C179.573 14.2044 178.88 15.0044 178.373 16.0177C177.893 17.031 177.653 18.1777 177.653 19.4577C177.653 20.711 177.893 21.8444 178.373 22.8577C178.88 23.871 179.573 24.671 180.453 25.2577C181.333 25.8444 182.346 26.1377 183.493 26.1377ZM210.41 8.33769C212.544 8.33769 214.117 8.85769 215.13 9.89769C216.144 10.911 216.81 12.231 217.13 13.8577L216.45 13.4977L216.77 12.8577C217.09 12.2444 217.584 11.591 218.25 10.8977C218.917 10.1777 219.717 9.57769 220.65 9.09769C221.61 8.59103 222.677 8.33769 223.85 8.33769C225.77 8.33769 227.224 8.75103 228.21 9.5777C229.224 10.4044 229.917 11.511 230.29 12.8977C230.664 14.2577 230.85 15.7777 230.85 17.4577V27.6977C230.85 28.391 230.624 28.9777 230.17 29.4577C229.717 29.911 229.144 30.1377 228.45 30.1377C227.757 30.1377 227.184 29.911 226.73 29.4577C226.277 28.9777 226.05 28.391 226.05 27.6977V17.4577C226.05 16.5777 225.944 15.791 225.73 15.0977C225.517 14.3777 225.13 13.8044 224.57 13.3777C224.01 12.951 223.21 12.7377 222.17 12.7377C221.157 12.7377 220.29 12.951 219.57 13.3777C218.85 13.8044 218.304 14.3777 217.93 15.0977C217.584 15.791 217.41 16.5777 217.41 17.4577V27.6977C217.41 28.391 217.184 28.9777 216.73 29.4577C216.277 29.911 215.704 30.1377 215.01 30.1377C214.317 30.1377 213.744 29.911 213.29 29.4577C212.837 28.9777 212.61 28.391 212.61 27.6977V17.4577C212.61 16.5777 212.504 15.791 212.29 15.0977C212.077 14.3777 211.69 13.8044 211.13 13.3777C210.57 12.951 209.77 12.7377 208.73 12.7377C207.717 12.7377 206.85 12.951 206.13 13.3777C205.41 13.8044 204.864 14.3777 204.49 15.0977C204.144 15.791 203.97 16.5777 203.97 17.4577V27.6977C203.97 28.391 203.744 28.9777 203.29 29.4577C202.837 29.911 202.264 30.1377 201.57 30.1377C200.877 30.1377 200.304 29.911 199.85 29.4577C199.397 28.9777 199.17 28.391 199.17 27.6977V11.1777C199.17 10.4844 199.397 9.91103 199.85 9.45769C200.304 8.97769 200.877 8.73769 201.57 8.73769C202.264 8.73769 202.837 8.97769 203.29 9.45769C203.744 9.91103 203.97 10.4844 203.97 11.1777V12.8977L203.37 12.7777C203.61 12.3244 203.944 11.8444 204.37 11.3377C204.797 10.8044 205.317 10.311 205.93 9.85769C206.544 9.40436 207.224 9.04436 207.97 8.77769C208.717 8.48436 209.53 8.33769 210.41 8.33769ZM240.565 27.6977C240.565 28.391 240.339 28.9777 239.885 29.4577C239.432 29.911 238.859 30.1377 238.165 30.1377C237.472 30.1377 236.899 29.911 236.445 29.4577C235.992 28.9777 235.765 28.391 235.765 27.6977V11.1777C235.765 10.4844 235.992 9.91103 236.445 9.45769C236.899 8.97769 237.472 8.73769 238.165 8.73769C238.859 8.73769 239.432 8.97769 239.885 9.45769C240.339 9.91103 240.565 10.4844 240.565 11.1777V27.6977ZM238.125 6.13769C237.219 6.13769 236.579 5.99103 236.205 5.6977C235.832 5.40436 235.645 4.88436 235.645 4.13769V3.37769C235.645 2.60436 235.845 2.08436 236.245 1.8177C236.672 1.52436 237.312 1.37769 238.165 1.37769C239.099 1.37769 239.752 1.52436 240.125 1.8177C240.499 2.11103 240.685 2.63103 240.685 3.37769V4.13769C240.685 4.91103 240.485 5.44436 240.085 5.73769C239.685 6.00436 239.032 6.13769 238.125 6.13769Z" fill="white"/>
</svg>
