<svg width="241" height="31" viewBox="0 0 241 31" fill="none" xmlns="http://www.w3.org/2000/svg">
<path d="M12 2C13.92 2 15.6267 2.36 17.12 3.08C18.6133 3.8 19.8667 4.81333 20.88 6.12C21.92 7.4 22.6933 8.89333 23.2 10.6C23.7333 12.28 24 14.08 24 16C24 18.5867 23.5333 20.9467 22.6 23.08C21.6667 25.1867 20.3067 26.8667 18.52 28.12C16.76 29.3733 14.5867 30 12 30H2.44C1.74667 30 1.16 29.7733 0.68 29.32C0.226667 28.84 1.19209e-07 28.2533 1.19209e-07 27.56V4.44C1.19209e-07 3.74667 0.226667 3.17333 0.68 2.72C1.16 2.24 1.74667 2 2.44 2H12ZM11.6 25.4C13.28 25.4 14.6533 24.9733 15.72 24.12C16.7867 23.24 17.56 22.0933 18.04 20.68C18.5467 19.24 18.8 17.68 18.8 16C18.8 14.7467 18.6533 13.56 18.36 12.44C18.0933 11.2933 17.6667 10.2933 17.08 9.44C16.4933 8.56 15.7467 7.86666 14.84 7.36C13.9333 6.85333 12.8533 6.6 11.6 6.6H4.6L5 6.24V25.84L4.76 25.4H11.6ZM46.9278 2C47.5145 2 48.0878 2.21333 48.6478 2.64C49.2345 3.06667 49.5278 3.64 49.5278 4.36C49.5278 4.86667 49.3411 5.37333 48.9678 5.88L33.6478 25.56L33.1678 25.4H46.5278C47.2211 25.4 47.7945 25.6133 48.2478 26.04C48.7278 26.44 48.9678 26.9867 48.9678 27.68C48.9678 28.3467 48.7278 28.9067 48.2478 29.36C47.7945 29.7867 47.2211 30 46.5278 30H28.9678C28.2745 30 27.6745 29.76 27.1678 29.28C26.6611 28.7733 26.4078 28.2267 26.4078 27.64C26.4078 27.1333 26.5945 26.6267 26.9678 26.12L42.3278 6.36L42.6878 6.6H30.5678C29.8745 6.6 29.2878 6.38667 28.8078 5.96C28.3545 5.53333 28.1278 4.97333 28.1278 4.28C28.1278 3.58667 28.3545 3.04 28.8078 2.64C29.2878 2.21333 29.8745 2 30.5678 2H46.9278Z" fill="#ED9620"/>
<path d="M55.3853 20.12C54.692 20.12 54.1053 19.8933 53.6253 19.44C53.172 18.9867 52.9453 18.4133 52.9453 17.72C52.9453 17.0267 53.172 16.4667 53.6253 16.04C54.1053 15.5867 54.692 15.36 55.3853 15.36H62.3453C63.0386 15.36 63.612 15.6 64.0653 16.08C64.5453 16.5333 64.7853 17.1067 64.7853 17.8C64.7853 18.4667 64.5453 19.0267 64.0653 19.48C63.612 19.9067 63.0386 20.12 62.3453 20.12H55.3853ZM72.3247 1.96C72.698 1.96 73.0847 2.06667 73.4847 2.28C73.9114 2.46667 74.2314 2.72 74.4447 3.04L84.1647 18L82.1647 17.92L92.1247 3.04C92.6314 2.32 93.2847 1.96 94.0847 1.96C94.7247 1.96 95.298 2.18667 95.8047 2.64C96.3114 3.09333 96.5647 3.68 96.5647 4.4V27.56C96.5647 28.2533 96.338 28.84 95.8847 29.32C95.4314 29.7733 94.8314 30 94.0847 30C93.338 30 92.7247 29.7733 92.2447 29.32C91.7914 28.84 91.5647 28.2533 91.5647 27.56V8.72L93.1247 9.08L84.9647 21.52C84.7247 21.8133 84.418 22.0667 84.0447 22.28C83.698 22.4933 83.338 22.5867 82.9647 22.56C82.618 22.5867 82.258 22.4933 81.8847 22.28C81.538 22.0667 81.2447 21.8133 81.0047 21.52L73.3647 9.44L74.4047 7.32V27.56C74.4047 28.2533 74.1914 28.84 73.7647 29.32C73.338 29.7733 72.778 30 72.0847 30C71.418 30 70.8714 29.7733 70.4447 29.32C70.018 28.84 69.8047 28.2533 69.8047 27.56V4.4C69.8047 3.73333 70.0447 3.16 70.5247 2.68C71.0314 2.2 71.6314 1.96 72.3247 1.96ZM122.938 19.32C122.938 21.5067 122.445 23.44 121.458 25.12C120.498 26.7733 119.191 28.0667 117.538 29C115.911 29.9333 114.085 30.4 112.058 30.4C110.031 30.4 108.191 29.9333 106.538 29C104.911 28.0667 103.605 26.7733 102.618 25.12C101.658 23.44 101.178 21.5067 101.178 19.32C101.178 17.1333 101.658 15.2133 102.618 13.56C103.605 11.88 104.911 10.5733 106.538 9.64C108.191 8.68 110.031 8.2 112.058 8.2C114.085 8.2 115.911 8.68 117.538 9.64C119.191 10.5733 120.498 11.88 121.458 13.56C122.445 15.2133 122.938 17.1333 122.938 19.32ZM118.138 19.32C118.138 17.96 117.858 16.7867 117.298 15.8C116.765 14.7867 116.031 14 115.098 13.44C114.191 12.88 113.178 12.6 112.058 12.6C110.938 12.6 109.911 12.88 108.978 13.44C108.071 14 107.338 14.7867 106.778 15.8C106.245 16.7867 105.978 17.96 105.978 19.32C105.978 20.6533 106.245 21.8267 106.778 22.84C107.338 23.8267 108.071 24.6 108.978 25.16C109.911 25.72 110.938 26 112.058 26C113.178 26 114.191 25.72 115.098 25.16C116.031 24.6 116.765 23.8267 117.298 22.84C117.858 21.8267 118.138 20.6533 118.138 19.32ZM143.019 8.6C143.712 8.6 144.286 8.84 144.739 9.32C145.192 9.77333 145.419 10.3467 145.419 11.04V21.2C145.419 24.0267 144.632 26.2667 143.059 27.92C141.486 29.5733 139.219 30.4 136.259 30.4C133.299 30.4 131.032 29.5733 129.459 27.92C127.912 26.2667 127.139 24.0267 127.139 21.2V11.04C127.139 10.3467 127.366 9.77333 127.819 9.32C128.272 8.84 128.846 8.6 129.539 8.6C130.232 8.6 130.806 8.84 131.259 9.32C131.712 9.77333 131.939 10.3467 131.939 11.04V21.2C131.939 22.8267 132.299 24.04 133.019 24.84C133.739 25.6133 134.819 26 136.259 26C137.726 26 138.819 25.6133 139.539 24.84C140.259 24.04 140.619 22.8267 140.619 21.2V11.04C140.619 10.3467 140.846 9.77333 141.299 9.32C141.752 8.84 142.326 8.6 143.019 8.6ZM161.856 8.2C163.776 8.2 165.229 8.61333 166.216 9.44C167.229 10.2667 167.922 11.3733 168.296 12.76C168.669 14.12 168.856 15.64 168.856 17.32V27.56C168.856 28.2533 168.629 28.84 168.176 29.32C167.722 29.7733 167.149 30 166.456 30C165.762 30 165.189 29.7733 164.736 29.32C164.282 28.84 164.056 28.2533 164.056 27.56V17.32C164.056 16.44 163.949 15.6533 163.736 14.96C163.522 14.24 163.136 13.6667 162.576 13.24C162.016 12.8133 161.216 12.6 160.176 12.6C159.162 12.6 158.296 12.8133 157.576 13.24C156.856 13.6667 156.309 14.24 155.936 14.96C155.589 15.6533 155.416 16.44 155.416 17.32V27.56C155.416 28.2533 155.189 28.84 154.736 29.32C154.282 29.7733 153.709 30 153.016 30C152.322 30 151.749 29.7733 151.296 29.32C150.842 28.84 150.616 28.2533 150.616 27.56V2.84C150.616 2.14667 150.842 1.57333 151.296 1.12C151.749 0.639999 152.322 0.4 153.016 0.4C153.709 0.4 154.282 0.639999 154.736 1.12C155.189 1.57333 155.416 2.14667 155.416 2.84V12.76L154.816 12.64C155.056 12.1867 155.389 11.7067 155.816 11.2C156.242 10.6667 156.762 10.1733 157.376 9.72C157.989 9.26666 158.669 8.90666 159.416 8.64C160.162 8.34667 160.976 8.2 161.856 8.2ZM191.573 8.2C192.266 8.2 192.84 8.42667 193.293 8.88C193.746 9.33333 193.973 9.92 193.973 10.64V27.56C193.973 28.2533 193.746 28.84 193.293 29.32C192.84 29.7733 192.266 30 191.573 30C190.88 30 190.306 29.7733 189.853 29.32C189.4 28.84 189.173 28.2533 189.173 27.56V25.6L190.053 25.96C190.053 26.3067 189.866 26.7333 189.493 27.24C189.12 27.72 188.613 28.2 187.973 28.68C187.333 29.16 186.573 29.5733 185.693 29.92C184.84 30.24 183.906 30.4 182.893 30.4C181.053 30.4 179.386 29.9333 177.893 29C176.4 28.04 175.213 26.7333 174.333 25.08C173.48 23.4 173.053 21.48 173.053 19.32C173.053 17.1333 173.48 15.2133 174.333 13.56C175.213 11.88 176.386 10.5733 177.853 9.64C179.32 8.68 180.946 8.2 182.733 8.2C183.88 8.2 184.933 8.37333 185.893 8.72C186.853 9.06667 187.68 9.50667 188.373 10.04C189.093 10.5733 189.64 11.12 190.013 11.68C190.413 12.2133 190.613 12.6667 190.613 13.04L189.173 13.56V10.64C189.173 9.94666 189.4 9.37333 189.853 8.92C190.306 8.44 190.88 8.2 191.573 8.2ZM183.493 26C184.666 26 185.693 25.7067 186.573 25.12C187.453 24.5333 188.133 23.7333 188.613 22.72C189.12 21.7067 189.373 20.5733 189.373 19.32C189.373 18.04 189.12 16.8933 188.613 15.88C188.133 14.8667 187.453 14.0667 186.573 13.48C185.693 12.8933 184.666 12.6 183.493 12.6C182.346 12.6 181.333 12.8933 180.453 13.48C179.573 14.0667 178.88 14.8667 178.373 15.88C177.893 16.8933 177.653 18.04 177.653 19.32C177.653 20.5733 177.893 21.7067 178.373 22.72C178.88 23.7333 179.573 24.5333 180.453 25.12C181.333 25.7067 182.346 26 183.493 26ZM210.41 8.2C212.544 8.2 214.117 8.72 215.13 9.76C216.144 10.7733 216.81 12.0933 217.13 13.72L216.45 13.36L216.77 12.72C217.09 12.1067 217.584 11.4533 218.25 10.76C218.917 10.04 219.717 9.44 220.65 8.96C221.61 8.45333 222.677 8.2 223.85 8.2C225.77 8.2 227.224 8.61333 228.21 9.44C229.224 10.2667 229.917 11.3733 230.29 12.76C230.664 14.12 230.85 15.64 230.85 17.32V27.56C230.85 28.2533 230.624 28.84 230.17 29.32C229.717 29.7733 229.144 30 228.45 30C227.757 30 227.184 29.7733 226.73 29.32C226.277 28.84 226.05 28.2533 226.05 27.56V17.32C226.05 16.44 225.944 15.6533 225.73 14.96C225.517 14.24 225.13 13.6667 224.57 13.24C224.01 12.8133 223.21 12.6 222.17 12.6C221.157 12.6 220.29 12.8133 219.57 13.24C218.85 13.6667 218.304 14.24 217.93 14.96C217.584 15.6533 217.41 16.44 217.41 17.32V27.56C217.41 28.2533 217.184 28.84 216.73 29.32C216.277 29.7733 215.704 30 215.01 30C214.317 30 213.744 29.7733 213.29 29.32C212.837 28.84 212.61 28.2533 212.61 27.56V17.32C212.61 16.44 212.504 15.6533 212.29 14.96C212.077 14.24 211.69 13.6667 211.13 13.24C210.57 12.8133 209.77 12.6 208.73 12.6C207.717 12.6 206.85 12.8133 206.13 13.24C205.41 13.6667 204.864 14.24 204.49 14.96C204.144 15.6533 203.97 16.44 203.97 17.32V27.56C203.97 28.2533 203.744 28.84 203.29 29.32C202.837 29.7733 202.264 30 201.57 30C200.877 30 200.304 29.7733 199.85 29.32C199.397 28.84 199.17 28.2533 199.17 27.56V11.04C199.17 10.3467 199.397 9.77333 199.85 9.32C200.304 8.84 200.877 8.6 201.57 8.6C202.264 8.6 202.837 8.84 203.29 9.32C203.744 9.77333 203.97 10.3467 203.97 11.04V12.76L203.37 12.64C203.61 12.1867 203.944 11.7067 204.37 11.2C204.797 10.6667 205.317 10.1733 205.93 9.72C206.544 9.26666 207.224 8.90666 207.97 8.64C208.717 8.34667 209.53 8.2 210.41 8.2Z" fill="#022A37"/>
<path d="M240.565 27.56C240.565 28.2533 240.339 28.84 239.885 29.32C239.432 29.7733 238.859 30 238.165 30C237.472 30 236.899 29.7733 236.445 29.32C235.992 28.84 235.765 28.2533 235.765 27.56V11.04C235.765 10.3467 235.992 9.77333 236.445 9.32C236.899 8.84 237.472 8.6 238.165 8.6C238.859 8.6 239.432 8.84 239.885 9.32C240.339 9.77333 240.565 10.3467 240.565 11.04V27.56ZM238.125 6C237.219 6 236.579 5.85333 236.205 5.56C235.832 5.26667 235.645 4.74667 235.645 4V3.24C235.645 2.46667 235.845 1.94667 236.245 1.68C236.672 1.38667 237.312 1.24 238.165 1.24C239.099 1.24 239.752 1.38667 240.125 1.68C240.499 1.97333 240.685 2.49333 240.685 3.24V4C240.685 4.77333 240.485 5.30667 240.085 5.6C239.685 5.86667 239.032 6 238.125 6Z" fill="black"/>
</svg>
